<svg width="960" height="720" viewBox="0 0 960 720" fill="none" xmlns="http://www.w3.org/2000/svg">
  <rect width="960" height="720" rx="44" fill="#F8F1E7"/>
  <circle cx="790" cy="138" r="116" fill="#D8E4F4"/>
  <circle cx="180" cy="584" r="136" fill="#F0D9CD"/>
  <rect x="132" y="120" width="696" height="480" rx="28" fill="#FFFDFC" stroke="#CDBBA7" stroke-width="4"/>
  <rect x="132" y="120" width="696" height="78" rx="28" fill="#F3E6D8"/>
  <circle cx="186" cy="159" r="12" fill="#D58D80"/>
  <circle cx="222" cy="159" r="12" fill="#E6C17E"/>
  <circle cx="258" cy="159" r="12" fill="#8FB59F"/>
  <rect x="184" y="258" width="262" height="18" rx="9" fill="#D7E3F2"/>
  <rect x="184" y="296" width="356" height="18" rx="9" fill="#EED8CA"/>
  <rect x="184" y="334" width="216" height="18" rx="9" fill="#E9E1D6"/>
  <rect x="184" y="404" width="596" height="130" rx="20" fill="#231F20"/>
  <rect x="214" y="436" width="186" height="20" rx="10" fill="#D5E5FF"/>
  <rect x="214" y="470" width="228" height="20" rx="10" fill="#F6CDBD"/>
  <rect x="214" y="504" width="262" height="20" rx="10" fill="#F1E7DB"/>
  <path d="M587 300L650 360L587 420" stroke="#86A7D0" stroke-width="18" stroke-linecap="round" stroke-linejoin="round"/>
  <path d="M713 280L673 440" stroke="#D1977B" stroke-width="18" stroke-linecap="round"/>
  <rect x="580" y="480" width="154" height="32" rx="16" fill="#D7E3F2"/>
</svg>
